<svg width="95" height="96" viewBox="0 0 95 96" fill="none" xmlns="http://www.w3.org/2000/svg">
<path d="M82.2186 52.0996C79.5601 52.8057 76.8211 53.1631 74.0704 53.1628C65.6946 53.1628 57.8289 49.9066 51.9207 43.9985C48.041 40.0964 45.2517 35.2455 43.831 29.9295C42.4103 24.6135 42.4077 19.0179 43.8235 13.7005C44.0003 13.0357 43.9992 12.3361 43.8202 11.6718C43.6413 11.0075 43.2908 10.402 42.804 9.91596C42.3171 9.42991 41.711 9.08042 41.0465 8.90256C40.3819 8.7247 39.6823 8.72472 39.0177 8.90262C32.3609 10.6766 26.2876 14.1698 21.407 19.032C6.11487 34.3242 6.11487 59.2161 21.407 74.5161C25.0419 78.1712 29.3655 81.0691 34.1278 83.0421C38.89 85.0152 43.9963 86.0242 49.151 86.0107C54.3044 86.0252 59.4095 85.017 64.1705 83.0446C68.9315 81.0721 73.2539 78.1747 76.8872 74.52C81.753 69.6385 85.2479 63.562 87.0205 56.9015C87.1966 56.2369 87.1951 55.5378 87.0163 54.874C86.8374 54.2102 86.4874 53.6049 86.0013 53.1188C85.5152 52.6327 84.9099 52.2827 84.2461 52.1038C83.5823 51.925 82.8832 51.9235 82.2186 52.0996ZM71.3439 68.9728C68.4368 71.8958 64.9788 74.2133 61.1701 75.7911C57.3613 77.3689 53.2775 78.1756 49.1549 78.1645C45.031 78.1748 40.9459 77.3674 37.1359 75.789C33.3259 74.2106 29.8667 71.8925 26.9582 68.9688C14.726 56.7328 14.726 36.8192 26.9582 24.5832C29.3219 22.2221 32.0507 20.2576 35.0397 18.7652C34.6022 24.4108 35.3887 30.0842 37.3454 35.3979C39.3021 40.7115 42.383 45.54 46.3774 49.5535C50.3821 53.5605 55.2092 56.6499 60.5251 58.6081C65.8409 60.5663 71.5187 61.3466 77.1657 60.8952C75.6652 63.8791 73.7001 66.6056 71.3439 68.9728Z" fill="#c9a30e"/>
</svg>
